<?xml version="1.0" encoding="UTF-8" standalone="no"?>
<!-- Uploaded to: SVG Repo, www.svgrepo.com, Generator: SVG Repo Mixer Tools -->

<svg
   height="800"
   width="600"
   version="1.1"
   id="Layer_1"
   viewBox="0 0 378.09225 504.12299"
   xml:space="preserve"
   sodipodi:docname="elevator4.svg"
   inkscape:version="1.3.2 (091e20ef0f, 2023-11-25)"
   xmlns:inkscape="http://www.inkscape.org/namespaces/inkscape"
   xmlns:sodipodi="http://sodipodi.sourceforge.net/DTD/sodipodi-0.dtd"
   xmlns="http://www.w3.org/2000/svg"
   xmlns:svg="http://www.w3.org/2000/svg"><defs
   id="defs16" /><sodipodi:namedview
   id="namedview16"
   pagecolor="#ffffff"
   bordercolor="#000000"
   borderopacity="0.25"
   inkscape:showpageshadow="2"
   inkscape:pageopacity="0.0"
   inkscape:pagecheckerboard="0"
   inkscape:deskcolor="#d1d1d1"
   showgrid="false"
   inkscape:zoom="1.45625"
   inkscape:cx="375.27897"
   inkscape:cy="382.83262"
   inkscape:window-width="2560"
   inkscape:window-height="1371"
   inkscape:window-x="0"
   inkscape:window-y="32"
   inkscape:window-maximized="1"
   inkscape:current-layer="g3" />





<path
   id="path4133"
   d="m 188.37345,0.34147725 c -81.74859,0 -177.125299,49.95858875 -177.125299,177.12530275 0,86.28905 136.251009,277.03911 177.125299,326.9977 36.33383,-49.95859 177.1253,-236.16482 177.1253,-326.9977 0,-127.166714 -95.37671,-177.12530275 -177.1253,-177.12530275 z"
   style="fill:#008000;stroke-width:33.6082" /><g
   id="g3"
   transform="translate(-64.29416,-64.501647)">
	<path
   style="fill:#1d2321"
   d="m 227.942,148.968 c 2.938,0 5.309,-2.387 5.309,-5.325 l 0.016,-46.781 14.588,14.596 c 3.119,3.119 8.168,3.119 11.28,0.008 3.119,-3.119 3.119,-8.168 0,-11.288 L 227.95,68.986 196.749,100.179 c -3.111,3.111 -3.111,8.168 0,11.28 3.119,3.119 8.184,3.119 11.296,0 l 14.604,-14.596 -0.016,46.781 c 0,2.938 2.363,5.324 5.309,5.324 z"
   id="path2" />
	<path
   style="fill:#1d2321"
   d="m 276.196,86.449 c -2.938,0 -5.309,2.387 -5.309,5.325 l -0.016,46.781 -14.588,-14.596 c -3.119,-3.119 -8.184,-3.119 -11.296,-0.008 -3.111,3.119 -3.111,8.168 0,11.288 l 31.201,31.193 31.185,-31.193 c 3.111,-3.111 3.111,-8.168 0,-11.28 -3.111,-3.119 -8.168,-3.119 -11.28,0 l -14.604,14.596 0.016,-46.781 c 0,-2.946 -2.363,-5.325 -5.309,-5.325 z"
   id="path3" />
	<polygon
   style="fill:#1d2321"
   points="368.246,386.97 368.246,154.585 326.892,154.585 326.892,138.831 384,138.831 384,402.723 120.115,402.723 120.115,138.831 177.231,138.831 177.231,154.585 135.869,154.585 135.869,386.97 "
   id="polygon3"
   transform="matrix(0.82867361,0,0,1,43.41353,0)" />
</g><g
   id="g16"
   transform="translate(-64.29416,-64.501647)">
	
	
	
	<g
   id="g19"
   transform="translate(2.6177612,1.1002969)"><path
     style="fill:#1d2321"
     d="m 234.04864,301.458 c 0,8.696 -7.05,15.754 -15.754,15.754 h -15.754 c -8.696,0 -15.754,-7.058 -15.754,-15.754 v -60.062 c 0,-8.696 7.058,-15.754 15.754,-15.754 h 15.754 c 8.704,0 15.754,7.058 15.754,15.754 z"
     id="path5" /><path
     style="fill:#1d2321"
     d="m 208.44864,366.931 c 0,4.08 -3.308,7.389 -7.389,7.389 v 0 c -4.08,0 -7.389,-3.308 -7.389,-7.389 v -59.077 c 0,-4.08 3.308,-7.389 7.389,-7.389 v 0 c 4.08,0 7.389,3.308 7.389,7.389 z"
     id="path6" /><path
     style="fill:#1d2321"
     d="m 226.17164,366.931 c 0,4.08 -3.308,7.389 -7.389,7.389 v 0 c -4.08,0 -7.389,-3.308 -7.389,-7.389 v -59.077 c 0,-4.08 3.308,-7.389 7.389,-7.389 v 0 c 4.08,0 7.389,3.308 7.389,7.389 z"
     id="path7" /><path
     style="fill:#1d2321"
     d="m 230.84264,207.919 c 0,8.696 -7.05,15.754 -15.754,15.754 h -9.358 c -8.696,0 -15.754,-7.058 -15.754,-15.754 v -9.358 c 0,-8.696 7.058,-15.754 15.754,-15.754 h 9.358 c 8.704,0 15.754,7.058 15.754,15.754 z"
     id="path8" /></g>
	
	
	
	
	
	
	
	<g
   id="g18"
   transform="translate(7.2046472,-0.85947824)"><path
     style="fill:#1d2321"
     d="m 304.31752,301.97756 c 0,8.696 -7.05,15.754 -15.754,15.754 h -15.754 c -8.696,0 -15.754,-7.058 -15.754,-15.754 v -60.062 c 0,-8.696 7.058,-15.754 15.754,-15.754 h 15.754 c 8.704,0 15.754,7.058 15.754,15.754 z"
     id="path13" /><path
     style="fill:#1d2321"
     d="m 278.71752,367.45056 c 0,4.08 -3.308,7.389 -7.389,7.389 v 0 c -4.08,0 -7.389,-3.308 -7.389,-7.389 v -59.077 c 0,-4.08 3.308,-7.389 7.389,-7.389 v 0 c 4.08,0 7.389,3.308 7.389,7.389 z"
     id="path14" /><path
     style="fill:#1d2321"
     d="m 296.44052,367.45056 c 0,4.08 -3.308,7.389 -7.389,7.389 v 0 c -4.08,0 -7.389,-3.308 -7.389,-7.389 v -59.077 c 0,-4.08 3.308,-7.389 7.389,-7.389 v 0 c 4.08,0 7.389,3.308 7.389,7.389 z"
     id="path15" /><path
     style="fill:#1d2321"
     d="m 301.11952,208.43856 c 0,8.696 -7.05,15.754 -15.754,15.754 h -9.358 c -8.696,0 -15.754,-7.058 -15.754,-15.754 v -9.358 c 0,-8.696 7.058,-15.754 15.754,-15.754 h 9.358 c 8.704,0 15.754,7.058 15.754,15.754 z"
     id="path16" /></g>
</g></svg>
