<?xml version="1.0" encoding="UTF-8" standalone="no"?>
<!-- Uploaded to: SVG Repo, www.svgrepo.com, Generator: SVG Repo Mixer Tools -->

<svg
   fill="#000000"
   width="800px"
   height="800px"
   viewBox="0 0 24 24"
   version="1.1"
   id="svg1"
   sodipodi:docname="escalator2.svg"
   inkscape:version="1.3.2 (091e20ef0f, 2023-11-25)"
   xmlns:inkscape="http://www.inkscape.org/namespaces/inkscape"
   xmlns:sodipodi="http://sodipodi.sourceforge.net/DTD/sodipodi-0.dtd"
   xmlns="http://www.w3.org/2000/svg"
   xmlns:svg="http://www.w3.org/2000/svg">
  <defs
     id="defs1" />
  <sodipodi:namedview
     id="namedview1"
     pagecolor="#ffffff"
     bordercolor="#000000"
     borderopacity="0.25"
     inkscape:showpageshadow="2"
     inkscape:pageopacity="0.0"
     inkscape:pagecheckerboard="0"
     inkscape:deskcolor="#d1d1d1"
     inkscape:zoom="0.96"
     inkscape:cx="448.4375"
     inkscape:cy="396.35417"
     inkscape:window-width="2560"
     inkscape:window-height="1371"
     inkscape:window-x="0"
     inkscape:window-y="32"
     inkscape:window-maximized="1"
     inkscape:current-layer="svg1" />
  <path
     id="path4133"
     d="m 12.066762,-0.00407066 c -3.8918393,0 -8.4324793,2.37840006 -8.4324793,8.43248006 0,4.1079996 6.4865593,13.1891196 8.4324793,15.5675196 1.72976,-2.3784 8.43248,-11.2432 8.43248,-15.5675196 0,-6.05408 -4.54064,-8.43248006 -8.43248,-8.43248006 z"
     style="fill:#0088aa;stroke-width:1.6" />
  <g
     id="g1"
     transform="translate(-0.21827954,-0.11976115)">
    <path
       d="m 7.9794429,15.470158 h 1.90381 c 0.8055231,-2.11e-4 1.5725191,-0.345774 2.1075881,-0.949555 l 4.378764,-4.9393797 c 0.268496,-0.3027744 0.653613,-0.4755209 1.057671,-0.474424 h 1.128184 c 2.349413,-9.705e-4 2.349413,-3.5361692 0,-3.5351987 h -1.903104 c -0.805524,2.102e-4 -1.57252,0.3457732 -2.107589,0.9495545 L 10.165299,11.460535 C 9.8968029,11.76331 9.5116847,11.936056 9.1076265,11.934959 H 7.9794429 c -2.349591,7.93e-4 -2.349591,3.535992 0,3.535199 z M 10.447345,4.1575211 c 1.570585,-2e-7 2.356852,-1.9039497 1.246415,-3.0174177 -1.110436,-1.11346791 -3.0092023,-0.32505424 -3.0092023,1.2498182 0,0.9762183 0.7892268,1.7675996 1.7627873,1.7675995 z M 12.530254,6.661856 C 12.137536,4.0707425 8.324889,4.3648237 8.3320003,6.9856802 v 3.5351988 h 0.7756262 z"
       id="path1"
       style="stroke-width:0.706077"
       sodipodi:nodetypes="cccccccccccccssssccccc" />
  </g>
</svg>
